<svg width="31" height="31" viewBox="0 0 31 31" fill="none" xmlns="http://www.w3.org/2000/svg">
<path fill-rule="evenodd" clip-rule="evenodd" d="M15.5547 0.132141C7.05812 0.132141 0.17627 7.18806 0.17627 15.8996C0.17627 22.8767 4.57835 28.7697 10.6913 30.8589C11.4602 30.9969 11.7485 30.5239 11.7485 30.11C11.7485 29.7355 11.7293 28.4938 11.7293 27.1733C7.86549 27.9025 6.86589 26.2075 6.55832 25.3206C6.38532 24.8673 5.63562 23.4679 4.98203 23.0935C4.44379 22.7978 3.67487 22.0686 4.96281 22.0489C6.17386 22.0292 7.0389 23.192 7.32725 23.665C8.71131 26.0498 10.922 25.3797 11.8062 24.9658C11.9408 23.941 12.3445 23.2511 12.7866 22.8569C9.36489 22.4628 5.7894 21.1028 5.7894 15.0718C5.7894 13.3571 6.38532 11.938 7.36569 10.8343C7.21191 10.4401 6.67366 8.82393 7.51948 6.65591C7.51948 6.65591 8.80742 6.24202 11.7485 8.27207C12.9788 7.91731 14.286 7.73992 15.5932 7.73992C16.9003 7.73992 18.2075 7.91731 19.4378 8.27207C22.3789 6.22231 23.6668 6.65591 23.6668 6.65591C24.5127 8.82393 23.9744 10.4401 23.8206 10.8343C24.801 11.938 25.3969 13.3374 25.3969 15.0718C25.3969 21.1225 21.8022 22.4628 18.3805 22.8569C18.938 23.3497 19.4186 24.2957 19.4186 25.7739C19.4186 27.8828 19.3993 29.5778 19.3993 30.11C19.3993 30.5239 19.6877 31.0166 20.4566 30.8589C26.5311 28.7697 30.9332 22.8569 30.9332 15.8996C30.9332 7.18806 24.0513 0.132141 15.5547 0.132141Z" fill="white"/>
</svg>
