<svg width="32" height="33" viewBox="0 0 32 33" fill="none" xmlns="http://www.w3.org/2000/svg">
<path fill-rule="evenodd" clip-rule="evenodd" d="M10.6313 16.9828C10.6313 14.25 12.8069 12.0457 15.5042 12.0457C18.2016 12.0457 20.3772 14.25 20.3772 16.9828C20.3772 19.7156 18.2016 21.9199 15.5042 21.9199C12.8069 21.9199 10.6313 19.7156 10.6313 16.9828ZM15.5042 20.1926C13.7612 20.1926 12.3362 18.7531 12.3362 16.9828C12.3362 15.2125 13.7569 13.7731 15.5042 13.7731C17.2516 13.7731 18.6723 15.2125 18.6723 16.9828C18.6723 18.7531 17.2473 20.1926 15.5042 20.1926Z" fill="white"/>
<path d="M21.7132 11.8438C21.7132 12.484 21.2042 12.9953 20.5766 12.9953C19.9447 12.9953 19.44 12.4797 19.44 11.8438C19.44 11.2078 19.9489 10.6922 20.5766 10.6922C21.2042 10.6922 21.7132 11.2078 21.7132 11.8438Z" fill="white"/>
<path fill-rule="evenodd" clip-rule="evenodd" d="M15.7331 32.4534C24.4223 32.4534 31.4662 25.4094 31.4662 16.7202C31.4662 8.03108 24.4223 0.987122 15.7331 0.987122C7.04396 0.987122 0 8.03108 0 16.7202C0 25.4094 7.04396 32.4534 15.7331 32.4534ZM23.4054 8.97776C24.5208 10.1035 24.8685 11.4699 24.9406 13.0125C25.0297 14.6024 25.0297 19.3633 24.9406 20.9531C24.8643 22.4957 24.5165 23.8621 23.4054 24.9879C22.2942 26.118 20.9455 26.4703 19.423 26.5434C17.8538 26.6336 13.1505 26.6336 11.5813 26.5434C10.0587 26.466 8.71429 26.1137 7.59889 24.9879C6.48349 23.8621 6.13572 22.4957 6.06362 20.9531C5.97456 19.3633 5.97456 14.5981 6.06362 13.0082C6.13996 11.4656 6.48349 10.0992 7.59889 8.97346C8.71429 7.84768 10.063 7.49534 11.5813 7.42229C13.1505 7.33206 17.8538 7.33206 19.423 7.42229C20.9455 7.49963 22.2942 7.85198 23.4054 8.97776Z" fill="white"/>
</svg>
