<svg width="32" height="32" viewBox="0 0 32 32" fill="none" xmlns="http://www.w3.org/2000/svg">
<path fill-rule="evenodd" clip-rule="evenodd" d="M16.2666 31.9597C24.9557 31.9597 31.9997 24.9158 31.9997 16.2266C31.9997 7.53743 24.9557 0.493469 16.2666 0.493469C7.5774 0.493469 0.533447 7.53743 0.533447 16.2266C0.533447 24.9158 7.5774 31.9597 16.2666 31.9597ZM6.75022 12.9665V25.559H10.9358V12.9665H6.75022ZM8.81534 11.2478H8.84299C10.3032 11.2478 11.2111 10.2805 11.2111 9.07146C11.1837 7.83588 10.3032 6.89598 8.8704 6.89598C7.43789 6.89598 6.50122 7.83588 6.50122 9.07146C6.50122 10.2805 7.41129 11.2478 8.81534 11.2478ZM21.8453 25.559H26.032V18.3378C26.032 14.4703 23.9669 12.6709 21.2117 12.6709C18.9876 12.6709 17.9948 13.8949 17.4384 14.7509V12.9666H13.251C13.3071 14.1479 13.251 25.559 13.251 25.559H17.4384V18.5263C17.4384 18.149 17.4672 17.7749 17.5773 17.5058C17.8803 16.7525 18.5679 15.9748 19.7252 15.9748C21.2404 15.9748 21.8453 17.1299 21.8453 18.822V25.559Z" fill="white"/>
</svg>
