<svg width="35" height="35" viewBox="0 0 35 35" fill="none" xmlns="http://www.w3.org/2000/svg">
<path d="M34.5512 17.2756C34.5512 26.8166 26.8166 34.5512 17.2756 34.5512C7.73454 34.5512 0 26.8166 0 17.2756C0 7.73454 7.73454 0 17.2756 0C26.8166 0 34.5512 7.73454 34.5512 17.2756Z" fill="white"/>
<path d="M26.595 16.6391C24.503 21.3193 19.453 27.691 16.261 27.691C13.1153 27.691 12.6604 20.6653 10.9424 15.9892C10.0969 13.6895 9.55073 14.217 7.96632 15.3783L7 14.073C9.31044 11.9455 11.6247 9.47353 13.0459 9.33627C14.6458 9.1748 15.6314 10.3199 16.0002 12.7731C16.4872 15.9972 17.167 21.0004 18.3543 21.0004C19.2795 21.0004 21.5591 17.0307 21.676 15.6124C21.8842 13.5347 20.2176 13.4715 18.7706 14.1201C21.0592 6.26684 30.585 7.71342 26.595 16.6391Z" fill="black"/>
</svg>
