<svg width="35" height="35" viewBox="0 0 35 35" fill="none" xmlns="http://www.w3.org/2000/svg">
<path fill-rule="evenodd" clip-rule="evenodd" d="M17.2756 34.5512C26.8166 34.5512 34.5512 26.8166 34.5512 17.2756C34.5512 7.73454 26.8166 0 17.2756 0C7.73454 0 0 7.73454 0 17.2756C0 26.8166 7.73454 34.5512 17.2756 34.5512ZM16.261 27.691C19.453 27.691 24.503 21.3193 26.595 16.6391C30.585 7.71342 21.0592 6.26684 18.7706 14.1201C20.2176 13.4715 21.8842 13.5347 21.676 15.6124C21.5591 17.0307 19.2795 21.0004 18.3543 21.0004C17.2327 21.0004 16.5641 16.5362 16.0829 13.3241C16.0547 13.1357 16.0272 12.9517 16.0002 12.7731C15.6314 10.3199 14.6458 9.1748 13.0459 9.33627C11.8896 9.44795 10.1421 11.1051 8.2865 12.8648C7.8614 13.2679 7.43063 13.6764 7 14.073L7.96632 15.3783C8.03149 15.3305 8.09491 15.2838 8.15666 15.2383C9.59617 14.1783 10.1316 13.784 10.9424 15.9892C11.4471 17.3629 11.8428 18.9394 12.2298 20.481C13.1599 24.1869 14.0395 27.691 16.261 27.691Z" fill="white"/>
</svg>
